<svg id="Capa_1" data-name="Capa 1" xmlns="http://www.w3.org/2000/svg" viewBox="0 0 59.73 58.98"><defs><style>.cls-1{fill:#cbb3e8;stroke:#000;stroke-miterlimit:10;stroke-width:2px;}</style></defs><path class="cls-1" d="M5.73,3.85c4-5,8.9-2.37,11.27,0,0,0,4.73-5,6.73,1,0,0,4.29-3,7.65-1,0,0,3.35-5,10.35,0,0,0,9-5,9.49,1,0,0,6.51-4.42,4.51,3.29,0,0,3,1.71,3,7.71s-3,8-3,8a5.57,5.57,0,0,1,2,6c-1,4-2,3.34-2,3.34s4,2,0,5.35c0,0,6,7.31-1,9.31,0,0,4,3.22,1,6.61,0,0-5.11,5.39-8.55-.61,0,0-10.45,4-13.45,1,0,0-2,2-7,3s-8.19-4-8.19-4a7,7,0,0,1-5.81,3,2.94,2.94,0,0,1-3-3s-7,3.19-4-3.91c0,0-4-.09-2.22-9.54a11,11,0,0,1,2.22-4.55s-4.9-8,1-10.5c0,0-4.05-2.5-5.05-4.5a6.05,6.05,0,0,1,5-9S3.48,6.66,5.73,3.85Z"/><path d="M15.07,37.33V21.65c0-.33.08-.67.15-1A8.45,8.45,0,0,1,21.58,14,13.72,13.72,0,0,1,23,13.69H38.7c.34.05.68.08,1,.16a8.44,8.44,0,0,1,6.7,6.35c.13.47.17,1,.26,1.45V37.33c-.06.33-.09.67-.16,1A8.45,8.45,0,0,1,40.15,45c-.47.13-1,.17-1.45.26H23c-.34,0-.67-.08-1-.16a8.44,8.44,0,0,1-6.7-6.36A11.75,11.75,0,0,1,15.07,37.33ZM30.86,20.85a8.64,8.64,0,1,0,8.65,8.63A8.67,8.67,0,0,0,30.86,20.85Zm6.3-.51a2.56,2.56,0,1,0,2.54-2.56A2.57,2.57,0,0,0,37.16,20.34Z"/><path d="M30.88,23.26a6.23,6.23,0,1,1-6.24,6.22A6.24,6.24,0,0,1,30.88,23.26Z"/></svg>