<svg id="Capa_1" data-name="Capa 1" xmlns="http://www.w3.org/2000/svg" viewBox="0 0 59.73 58.98"><defs><style>.cls-1{fill:#cbb3e8;stroke:#000;stroke-miterlimit:10;stroke-width:2px;}</style></defs><path class="cls-1" d="M5.73,3.85c4-5,8.9-2.37,11.27,0,0,0,4.73-5,6.73,1,0,0,4.29-3,7.65-1,0,0,3.35-5,10.35,0,0,0,9-5,9.49,1,0,0,6.51-4.42,4.51,3.29,0,0,3,1.71,3,7.71s-3,8-3,8a5.57,5.57,0,0,1,2,6c-1,4-2,3.34-2,3.34s4,2,0,5.35c0,0,6,7.31-1,9.31,0,0,4,3.22,1,6.61,0,0-5.11,5.39-8.55-.61,0,0-10.45,4-13.45,1,0,0-2,2-7,3s-8.19-4-8.19-4a7,7,0,0,1-5.81,3,2.94,2.94,0,0,1-3-3s-7,3.19-4-3.91c0,0-4-.09-2.22-9.54a11,11,0,0,1,2.22-4.55s-4.9-8,1-10.5c0,0-4.05-2.5-5.05-4.5a6.05,6.05,0,0,1,5-9S3.48,6.66,5.73,3.85Z"/><path d="M28.07,24.37h5.29v2.2c.22-.28.39-.53.59-.76A5.06,5.06,0,0,1,37.68,24a6.52,6.52,0,0,1,3,.46,5.17,5.17,0,0,1,2.68,2.47,7.29,7.29,0,0,1,.84,3.15c.05,1.56.05,3.11.05,4.67,0,1.76,0,3.51,0,5.27v.27H39.15c-.19,0-.23-.06-.23-.24,0-1.49,0-3,0-4.47,0-1.22,0-2.44,0-3.67a6.43,6.43,0,0,0-.28-2.09,2.63,2.63,0,0,0-4.29-.94,3.18,3.18,0,0,0-1,2.39q0,4.35,0,8.69v.3H28.07Z"/><path d="M25.11,40.28H19.85V24.38h5.26Z"/><path d="M22.48,22.19a2.78,2.78,0,0,1-2.86-2,2.71,2.71,0,0,1,2.3-3.45,3.3,3.3,0,0,1,2.22.36,2.58,2.58,0,0,1,1.33,2.44,2.72,2.72,0,0,1-2.81,2.66Z"/></svg>