<svg id="Capa_1" data-name="Capa 1" xmlns="http://www.w3.org/2000/svg" viewBox="0 0 59.73 58.98"><defs><style>.cls-1{fill:#fff;stroke:#000;stroke-miterlimit:10;stroke-width:2px;}</style></defs><path class="cls-1" d="M5.73,3.85c4-5,8.9-2.37,11.27,0,0,0,4.73-5,6.73,1,0,0,4.29-3,7.65-1,0,0,3.35-5,10.35,0,0,0,9-5,9.49,1,0,0,6.51-4.42,4.51,3.29,0,0,3,1.71,3,7.71s-3,8-3,8a5.57,5.57,0,0,1,2,6c-1,4-2,3.34-2,3.34s4,2,0,5.35c0,0,6,7.31-1,9.31,0,0,4,3.22,1,6.61,0,0-5.11,5.39-8.55-.61,0,0-10.45,4-13.45,1,0,0-2,2-7,3s-8.19-4-8.19-4a7,7,0,0,1-5.81,3,2.94,2.94,0,0,1-3-3s-7,3.19-4-3.91c0,0-4-.09-2.22-9.54a11,11,0,0,1,2.22-4.55s-4.9-8,1-10.5c0,0-4.05-2.5-5.05-4.5a6.05,6.05,0,0,1,5-9S3.48,6.66,5.73,3.85Z"/><path d="M30.87,18.88c2.9,0,5.79.14,8.68.41.84.08,1.69.15,2.54.26a3.72,3.72,0,0,1,3.19,2.94A21,21,0,0,1,45.77,27c0,1.91,0,3.83,0,5.74a17.09,17.09,0,0,1-.48,3.83A3.74,3.74,0,0,1,42,39.44c-3,.33-6,.56-9,.64a85.51,85.51,0,0,1-8.91-.24c-1.43-.12-2.86-.25-4.28-.39a3.75,3.75,0,0,1-3.37-3A21.41,21.41,0,0,1,16,32c0-1.92,0-3.84,0-5.76a18.53,18.53,0,0,1,.45-3.7,3.76,3.76,0,0,1,3.3-3A100.77,100.77,0,0,1,30,18.88ZM27.65,29.49c0,1.22,0,2.45,0,3.67a1.49,1.49,0,0,0,.07.47.65.65,0,0,0,.81.48,1.89,1.89,0,0,0,.53-.21l2.4-1.3,4.48-2.42c.28-.15.53-.34.53-.69A.79.79,0,0,0,36,28.8L29,25a1.59,1.59,0,0,0-.43-.16.66.66,0,0,0-.82.49,1.84,1.84,0,0,0-.06.47C27.64,27,27.65,28.27,27.65,29.49Z"/></svg>