<svg id="Capa_1" data-name="Capa 1" xmlns="http://www.w3.org/2000/svg" viewBox="0 0 59.73 58.98"><defs><style>.cls-1{fill:#cbb3e8;stroke:#000;stroke-miterlimit:10;stroke-width:2px;}</style></defs><path class="cls-1" d="M5.73,3.85c4-5,8.9-2.37,11.27,0,0,0,4.73-5,6.73,1,0,0,4.29-3,7.65-1,0,0,3.35-5,10.35,0,0,0,9-5,9.49,1,0,0,6.51-4.42,4.51,3.29,0,0,3,1.71,3,7.71s-3,8-3,8a5.57,5.57,0,0,1,2,6c-1,4-2,3.34-2,3.34s4,2,0,5.35c0,0,6,7.31-1,9.31,0,0,4,3.22,1,6.61,0,0-5.11,5.39-8.55-.61,0,0-10.45,4-13.45,1,0,0-2,2-7,3s-8.19-4-8.19-4a7,7,0,0,1-5.81,3,2.94,2.94,0,0,1-3-3s-7,3.19-4-3.91c0,0-4-.09-2.22-9.54a11,11,0,0,1,2.22-4.55s-4.9-8,1-10.5c0,0-4.05-2.5-5.05-4.5a6.05,6.05,0,0,1,5-9S3.48,6.66,5.73,3.85Z"/><path d="M46.27,33.87a10.92,10.92,0,0,1-.49,1.53,4.57,4.57,0,0,1-4.21,2.73c-3.23,0-6.47,0-9.71,0a1,1,0,0,1-1-1c0-2.29,0-4.57,0-6.86V22c0-.81.38-1.18,1.18-1.16A8.67,8.67,0,0,1,40.12,27c.16.52.24,1.07.35,1.59a12.81,12.81,0,0,1,1.64,0,4.76,4.76,0,0,1,4.1,4.05,1.66,1.66,0,0,0,.06.16Z"/><path d="M28.94,30.47v6.62a1,1,0,0,1-1.28,1,.94.94,0,0,1-.64-.83c0-.1,0-.2,0-.3v-13a2,2,0,0,1,0-.42,1,1,0,0,1,1.9.2c0,.84,0,1.68,0,2.52Z"/><path d="M21.24,32.37v4.75a1,1,0,0,1-1.31,1,.91.91,0,0,1-.61-.88c0-.35,0-.7,0-1V27.78a2,2,0,0,1,0-.42,1,1,0,0,1,1-.76.94.94,0,0,1,.88.93c0,.72,0,1.44,0,2.16Z"/><path d="M23.17,32.37c0-1.59,0-3.17,0-4.75a1,1,0,0,1,1.3-1,.94.94,0,0,1,.62.88c0,.39,0,.78,0,1.18V37a1.94,1.94,0,0,1,0,.42,1,1,0,0,1-1.9-.16c0-.74,0-1.48,0-2.23Z"/><path d="M17.39,33.33V36.1a1,1,0,1,1-1.92,0c0-1.86,0-3.71,0-5.56a1,1,0,1,1,1.92,0Z"/></svg>